C:\GBW_MyPrograms\KinderuniversiteitApp\Resultaten\Ellis_v10102025\Jullie_lengte\Jullie_lengte_v11.mot
version=1
nRows=8
nColumns=29
inDegrees=yes
endheader
                time	         pelvis_tilt	           pelvis_tx	           pelvis_ty	       hip_flexion_l	       hip_flexion_r	        knee_angle_l	        knee_angle_r	       ankle_angle_l	       ankle_angle_r	    lumbar_extension	hamstrings_r/activation	bifemsh_r/activation	glut_max_r/activation	iliopsoas_r/activation	rect_fem_r/activation	  vasti_r/activation	gastroc_r/activation	 soleus_r/activation	tib_ant_r/activation	hamstrings_l/activation	bifemsh_l/activation	glut_max_l/activation	iliopsoas_l/activation	rect_fem_l/activation	  vasti_l/activation	gastroc_l/activation	 soleus_l/activation	tib_ant_l/activation	
          0.50731375	         -8.06710016	          0.43121669	          0.67389190	         31.88768924	         -6.97603615	        -14.27813126	        -11.12868255	         11.00764325	          6.01624746	          1.05920839	          0.05000002	          0.11863237	          0.05000013	          0.34301756	          0.05000035	          0.05000003	          0.17408107	          0.24709402	          0.05000000	          0.10143754	          0.05000009	          0.05877194	          0.05000007	          0.06836788	          0.05498383	          0.05000002	          0.05000011	          0.23853046	
          0.51746002	         -8.06553406	          0.44197334	          0.67324580	         31.05019094	         -6.80925387	        -13.62690456	        -13.12005133	         10.91515052	          5.48383529	          1.34559207	          0.05000003	          0.10147285	          0.05382762	          0.32324060	          0.05000007	          0.05000002	          0.14890120	          0.23060271	          0.05000000	          0.09854423	          0.05000006	          0.06742727	          0.05000002	          0.05847885	          0.07359307	          0.05000001	          0.05000000	          0.25457471	
          0.52760630	         -8.05777619	          0.45300612	          0.67252857	         30.12672096	         -6.52356343	        -13.48430759	        -15.36405290	         10.77031074	          4.83266214	          1.67032856	          0.05000015	          0.08679537	          0.08982620	          0.28414435	          0.05000004	          0.05000001	          0.12736346	          0.19724730	          0.05000000	          0.09328623	          0.05470456	          0.05767431	          0.05000005	          0.05002022	          0.06294825	          0.06379245	          0.05690497	          0.24047327	
          0.53775257	         -8.04566549	          0.46419125	          0.67179023	         29.18634343	         -6.13371463	        -13.58376294	        -17.79939421	         10.59369756	          4.01984778	          2.01654592	          0.05000009	          0.07424091	          0.10261614	          0.25645075	          0.05000004	          0.05000002	          0.10894103	          0.16871656	          0.05000000	          0.08175553	          0.06679695	          0.08686899	          0.05000002	          0.05000001	          0.10289083	          0.05456524	          0.05000007	          0.26532006	
          0.54789885	         -8.03305025	          0.47530374	          0.67122002	         28.33724727	         -5.62152064	        -13.81908603	        -20.39608148	         10.39756132	          3.01181504	          2.35220621	          0.05000004	          0.06350238	          0.08777329	          0.24375139	          0.05000012	          0.05918968	          0.09318331	          0.14431263	          0.11649162	          0.07231518	          0.05713518	          0.13653126	          0.05000001	          0.05000005	          0.16907113	          0.05000004	          0.05000003	          0.28476502	
          0.55804512	         -8.02335523	          0.48616399	          0.67094779	         27.58841020	         -4.98707461	        -14.17773596	        -23.12639826	         10.18764349	          1.97880954	          2.65281601	          0.05000003	          0.05431713	          0.07507737	          0.23711517	          0.05000010	          0.05320007	          0.07970485	          0.12343860	          0.23093464	          0.07156329	          0.05000012	          0.17412396	          0.05000001	          0.05000003	          0.21753948	          0.05000002	          0.05000002	          0.29762083	
          0.56819140	         -8.01905225	          0.49664705	          0.67096643	         26.89720622	         -4.25126332	        -14.57125535	        -25.88434228	         10.01285626	          1.30329079	          2.90188269	          0.05001923	          0.09956088	          0.06421784	          0.23681737	          0.05000002	          0.05000000	          0.06817609	          0.10558389	          0.22131793	          0.06811865	          0.05000013	          0.18935738	          0.05000001	          0.05000003	          0.24572173	          0.05000002	          0.05000002	          0.30403381	
          0.57833767	         -8.02103727	          0.50671811	          0.67128597	         26.22414518	         -3.44758482	        -14.92710731	        -28.40170128	          9.89447807	          1.19005587	          3.09596088	          0.05887183	          0.11784876	          0.05492909	          0.22788331	          0.05000003	          0.05000000	          0.06870941	          0.09031176	          0.24946257	          0.06728421	          0.05000024	          0.18315322	          0.05000001	          0.05000003	          0.25560038	          0.05000003	          0.05000003	          0.29981663	
